<svg width="72" height="19" viewBox="0 0 72 19" fill="none" xmlns="http://www.w3.org/2000/svg">
<path d="M10.592 4.368H3.872V8.352H10.4V11.52H3.872V18H0.56V1.2H10.592V4.368ZM20.7813 6H23.8773V18H20.7813V16.656C20.0293 17.776 18.8373 18.336 17.2053 18.336C15.8933 18.336 14.8053 17.896 13.9413 17.016C13.0933 16.136 12.6693 14.92 12.6693 13.368V6H15.7653V12.984C15.7653 13.784 15.9813 14.4 16.4133 14.832C16.8453 15.248 17.4213 15.456 18.1413 15.456C18.9413 15.456 19.5813 15.208 20.0613 14.712C20.5413 14.216 20.7813 13.472 20.7813 12.48V6ZM33.3849 5.664C34.6969 5.664 35.7769 6.104 36.6249 6.984C37.4889 7.864 37.9209 9.08 37.9209 10.632V18H34.8249V11.016C34.8249 10.216 34.6089 9.608 34.1769 9.192C33.7449 8.76 33.1689 8.544 32.4489 8.544C31.6489 8.544 31.0089 8.792 30.5289 9.288C30.0489 9.784 29.8089 10.528 29.8089 11.52V18H26.7129V6H29.8089V7.344C30.5609 6.224 31.7529 5.664 33.3849 5.664ZM42.1004 4.56C41.5884 4.56 41.1404 4.376 40.7564 4.008C40.3884 3.624 40.2044 3.176 40.2044 2.664C40.2044 2.152 40.3884 1.704 40.7564 1.32C41.1404 0.935999 41.5884 0.743999 42.1004 0.743999C42.6284 0.743999 43.0764 0.935999 43.4444 1.32C43.8284 1.704 44.0204 2.152 44.0204 2.664C44.0204 3.176 43.8284 3.624 43.4444 4.008C43.0764 4.376 42.6284 4.56 42.1004 4.56ZM40.5644 18V6H43.6604V18H40.5644ZM49.5901 8.064C49.8781 7.296 50.3501 6.72 51.0061 6.336C51.6781 5.952 52.4221 5.76 53.2381 5.76V9.216C52.2941 9.104 51.4461 9.296 50.6941 9.792C49.9581 10.288 49.5901 11.112 49.5901 12.264V18H46.4941V6H49.5901V8.064ZM64.8275 16.512C63.5955 17.728 62.0915 18.336 60.3155 18.336C58.5395 18.336 57.0355 17.728 55.8035 16.512C54.5875 15.28 53.9795 13.776 53.9795 12C53.9795 10.224 54.5875 8.728 55.8035 7.512C57.0355 6.28 58.5395 5.664 60.3155 5.664C62.0915 5.664 63.5955 6.28 64.8275 7.512C66.0595 8.728 66.6755 10.224 66.6755 12C66.6755 13.776 66.0595 15.28 64.8275 16.512ZM57.9875 14.376C58.6115 15 59.3875 15.312 60.3155 15.312C61.2435 15.312 62.0195 15 62.6435 14.376C63.2675 13.752 63.5795 12.96 63.5795 12C63.5795 11.04 63.2675 10.248 62.6435 9.624C62.0195 9 61.2435 8.688 60.3155 8.688C59.3875 8.688 58.6115 9 57.9875 9.624C57.3795 10.248 57.0755 11.04 57.0755 12C57.0755 12.96 57.3795 13.752 57.9875 14.376ZM71.1326 17.712C70.7326 18.112 70.2526 18.312 69.6926 18.312C69.1326 18.312 68.6526 18.112 68.2526 17.712C67.8526 17.312 67.6526 16.832 67.6526 16.272C67.6526 15.712 67.8526 15.232 68.2526 14.832C68.6526 14.432 69.1326 14.232 69.6926 14.232C70.2526 14.232 70.7326 14.432 71.1326 14.832C71.5326 15.232 71.7326 15.712 71.7326 16.272C71.7326 16.832 71.5326 17.312 71.1326 17.712Z" fill="black"/>
</svg>
